<mxfile host="app.diagrams.net" modified="2024-06-27T20:47:57.299Z" agent="Mozilla/5.0 (Windows NT 10.0; Win64; x64) AppleWebKit/537.36 (KHTML, like Gecko) Chrome/126.0.0.0 Safari/537.36" version="24.6.4" etag="GB1xx62AuX8qepTdL0r9" type="github">
  <diagram name="PÃ¡gina-1" id="BweyJeOB1Mu0qQ2sgm_D">
    <mxGraphModel>
      <root>
        <mxCell id="0" />
        <mxCell id="1" parent="0" />
      </root>
    </mxGraphModel>
  </diagram>
</mxfile>
